<svg width="15" height="17" viewBox="0 0 15 17" fill="none" xmlns="http://www.w3.org/2000/svg">
<path d="M8.52684 16.5C7.50184 16.5 6.53934 16.2656 5.63934 15.7969C4.73934 15.3281 4.00184 14.675 3.42684 13.8375L0.108088 8.9625C0.0205882 8.8375 -0.0137868 8.70312 0.00496324 8.55938C0.0237132 8.41563 0.0830882 8.29375 0.183088 8.19375C0.433088 7.93125 0.742463 7.78125 1.11121 7.74375C1.47996 7.70625 1.81434 7.79375 2.11434 8.00625L4.17684 9.43125V2.25C4.17684 2.0375 4.24871 1.85938 4.39246 1.71563C4.53621 1.57188 4.71434 1.5 4.92684 1.5C5.13934 1.5 5.31746 1.57188 5.46121 1.71563C5.60496 1.85938 5.67684 2.0375 5.67684 2.25V8.25H7.17684V0.75C7.17684 0.5375 7.24871 0.359375 7.39246 0.215625C7.53621 0.071875 7.71434 0 7.92684 0C8.13934 0 8.31746 0.071875 8.46121 0.215625C8.60496 0.359375 8.67684 0.5375 8.67684 0.75V8.25H10.1768V1.5C10.1768 1.2875 10.2487 1.10938 10.3925 0.965625C10.5362 0.821875 10.7143 0.75 10.9268 0.75C11.1393 0.75 11.3175 0.821875 11.4612 0.965625C11.605 1.10938 11.6768 1.2875 11.6768 1.5V8.25H13.1768V3C13.1768 2.7875 13.2487 2.60938 13.3925 2.46563C13.5362 2.32188 13.7143 2.25 13.9268 2.25C14.1393 2.25 14.3175 2.32188 14.4612 2.46563C14.605 2.60938 14.6768 2.7875 14.6768 3V10.35C14.6768 12.0625 14.08 13.5156 12.8862 14.7094C11.6925 15.9031 10.2393 16.5 8.52684 16.5Z" fill="currentColor"/>
</svg>
