<svg width="19" height="18" viewBox="0 0 19 18" fill="none" xmlns="http://www.w3.org/2000/svg">
<path d="M8.25 11.9167V10.0833H10.0833V11.9167H8.25ZM7.33333 3.66667H11V1.83333H7.33333V3.66667ZM1.83333 17.4167C1.32917 17.4167 0.89757 17.2372 0.538542 16.8781C0.179514 16.5191 0 16.0875 0 15.5833V11.9167H6.41667V12.8333C6.41667 13.0931 6.50451 13.3108 6.68021 13.4865C6.8559 13.6622 7.07361 13.75 7.33333 13.75H11C11.2597 13.75 11.4774 13.6622 11.6531 13.4865C11.8288 13.3108 11.9167 13.0931 11.9167 12.8333V11.9167H18.3333V15.5833C18.3333 16.0875 18.1538 16.5191 17.7948 16.8781C17.4358 17.2372 17.0042 17.4167 16.5 17.4167H1.83333ZM0 10.0833V5.5C0 4.99583 0.179514 4.56424 0.538542 4.20521C0.89757 3.84618 1.32917 3.66667 1.83333 3.66667H5.5V1.83333C5.5 1.32917 5.67951 0.897569 6.03854 0.538542C6.39757 0.179514 6.82917 0 7.33333 0H11C11.5042 0 11.9358 0.179514 12.2948 0.538542C12.6538 0.897569 12.8333 1.32917 12.8333 1.83333V3.66667H16.5C17.0042 3.66667 17.4358 3.84618 17.7948 4.20521C18.1538 4.56424 18.3333 4.99583 18.3333 5.5V10.0833H11.9167V9.16667C11.9167 8.90694 11.8288 8.68924 11.6531 8.51354C11.4774 8.33785 11.2597 8.25 11 8.25H7.33333C7.07361 8.25 6.8559 8.33785 6.68021 8.51354C6.50451 8.68924 6.41667 8.90694 6.41667 9.16667V10.0833H0Z" fill="white"/>
</svg>
