<svg width="20" height="20" viewBox="0 0 20 20" fill="none" xmlns="http://www.w3.org/2000/svg">
<mask id="mask0_4651_13092" style="mask-type:alpha" maskUnits="userSpaceOnUse" x="0" y="0" width="20" height="20">
<rect width="20" height="20" fill="#D9D9D9"/>
</mask>
<g mask="url(#mask0_4651_13092)">
<path d="M4.16667 18.3334C3.70833 18.3334 3.31597 18.1702 2.98958 17.8438C2.66319 17.5174 2.5 17.1251 2.5 16.6667V5.00008C2.5 4.54175 2.66319 4.14939 2.98958 3.823C3.31597 3.49661 3.70833 3.33341 4.16667 3.33341H5V2.50008C5 2.26397 5.07986 2.06605 5.23958 1.90633C5.39931 1.74661 5.59722 1.66675 5.83333 1.66675C6.06944 1.66675 6.26736 1.74661 6.42708 1.90633C6.58681 2.06605 6.66667 2.26397 6.66667 2.50008V3.33341H13.3333V2.50008C13.3333 2.26397 13.4132 2.06605 13.5729 1.90633C13.7326 1.74661 13.9306 1.66675 14.1667 1.66675C14.4028 1.66675 14.6007 1.74661 14.7604 1.90633C14.9201 2.06605 15 2.26397 15 2.50008V3.33341H15.8333C16.2917 3.33341 16.684 3.49661 17.0104 3.823C17.3368 4.14939 17.5 4.54175 17.5 5.00008V16.6667C17.5 17.1251 17.3368 17.5174 17.0104 17.8438C16.684 18.1702 16.2917 18.3334 15.8333 18.3334H4.16667ZM4.16667 16.6667H15.8333V8.33341H4.16667V16.6667ZM4.16667 6.66675H15.8333V5.00008H4.16667V6.66675Z" fill="#6A6A6A"/>
</g>
</svg>
