<svg width="22" height="22" viewBox="0 0 22 22" fill="none" xmlns="http://www.w3.org/2000/svg">
<mask id="mask0_7852_21476" style="mask-type:alpha" maskUnits="userSpaceOnUse" x="0" y="0" width="22" height="22">
<rect width="22" height="22" fill="#D9D9D9"/>
</mask>
<g mask="url(#mask0_7852_21476)">
<path d="M3.66699 17.4166V9.16665C3.66699 8.87637 3.73192 8.60137 3.86178 8.34165C3.99164 8.08192 4.17116 7.86804 4.40033 7.69998L9.90033 3.57498C10.2212 3.33054 10.5878 3.20831 11.0003 3.20831C11.4128 3.20831 11.7795 3.33054 12.1003 3.57498L17.6003 7.69998C17.8295 7.86804 18.009 8.08192 18.1389 8.34165C18.2687 8.60137 18.3337 8.87637 18.3337 9.16665V17.4166C18.3337 17.9208 18.1541 18.3524 17.7951 18.7114C17.4361 19.0705 17.0045 19.25 16.5003 19.25H13.7503C13.4906 19.25 13.2729 19.1621 13.0972 18.9864C12.9215 18.8107 12.8337 18.593 12.8337 18.3333V13.75C12.8337 13.4903 12.7458 13.2725 12.5701 13.0969C12.3944 12.9212 12.1767 12.8333 11.917 12.8333H10.0837C9.82394 12.8333 9.60623 12.9212 9.43053 13.0969C9.25484 13.2725 9.16699 13.4903 9.16699 13.75V18.3333C9.16699 18.593 9.07914 18.8107 8.90345 18.9864C8.72776 19.1621 8.51005 19.25 8.25033 19.25H5.50033C4.99616 19.25 4.56456 19.0705 4.20553 18.7114C3.84651 18.3524 3.66699 17.9208 3.66699 17.4166Z" fill="white"/>
</g>
</svg>
