<svg width="16" height="20" viewBox="0 0 16 20" fill="none" xmlns="http://www.w3.org/2000/svg">
<path d="M7.3 19.2C7.06667 19.1167 6.85833 18.9917 6.675 18.825C5.59167 17.825 4.63333 16.85 3.8 15.9C2.96667 14.95 2.27083 14.0292 1.7125 13.1375C1.15417 12.2458 0.729167 11.3875 0.4375 10.5625C0.145833 9.7375 0 8.95 0 8.2C0 5.7 0.804167 3.70833 2.4125 2.225C4.02083 0.741667 5.88333 0 8 0C10.1167 0 11.9792 0.741667 13.5875 2.225C15.1958 3.70833 16 5.7 16 8.2C16 8.95 15.8542 9.7375 15.5625 10.5625C15.2708 11.3875 14.8458 12.2458 14.2875 13.1375C13.7292 14.0292 13.0333 14.95 12.2 15.9C11.3667 16.85 10.4083 17.825 9.325 18.825C9.14167 18.9917 8.93333 19.1167 8.7 19.2C8.46667 19.2833 8.23333 19.325 8 19.325C7.76667 19.325 7.53333 19.2833 7.3 19.2ZM8 8C8.55 8 9.02083 7.80417 9.4125 7.4125C9.80417 7.02083 10 6.55 10 6C10 5.45 9.80417 4.97917 9.4125 4.5875C9.02083 4.19583 8.55 4 8 4C7.45 4 6.97917 4.19583 6.5875 4.5875C6.19583 4.97917 6 5.45 6 6C6 6.55 6.19583 7.02083 6.5875 7.4125C6.97917 7.80417 7.45 8 8 8ZM9.9875 12.575C10.6125 12.2917 11.1667 11.8917 11.65 11.375C11.7333 11.2917 11.7958 11.1958 11.8375 11.0875C11.8792 10.9792 11.9 10.8667 11.9 10.75C11.9 10.5667 11.8542 10.4 11.7625 10.25C11.6708 10.1 11.55 9.975 11.4 9.875C10.8667 9.59167 10.3167 9.375 9.75 9.225C9.18333 9.075 8.6 9 8 9C7.4 9 6.81667 9.075 6.25 9.225C5.68333 9.375 5.13333 9.59167 4.6 9.875C4.45 9.95833 4.33333 10.075 4.25 10.225C4.16667 10.375 4.125 10.5417 4.125 10.725C4.125 10.8417 4.14167 10.9542 4.175 11.0625C4.20833 11.1708 4.26667 11.275 4.35 11.375C4.83333 11.8917 5.3875 12.2917 6.0125 12.575C6.6375 12.8583 7.3 13 8 13C8.7 13 9.3625 12.8583 9.9875 12.575Z" fill="white"/>
</svg>
