<svg width="12" height="15" viewBox="0 0 12 15" fill="none" xmlns="http://www.w3.org/2000/svg">
<path d="M5.2125 7.9125L4.1625 6.8625C4.0125 6.7125 3.8375 6.6375 3.6375 6.6375C3.4375 6.6375 3.2625 6.7125 3.1125 6.8625C2.9625 7.0125 2.8875 7.19063 2.8875 7.39688C2.8875 7.60313 2.9625 7.78125 3.1125 7.93125L4.6875 9.525C4.8375 9.675 5.0125 9.75 5.2125 9.75C5.4125 9.75 5.5875 9.675 5.7375 9.525L8.925 6.3375C9.075 6.1875 9.15 6.00938 9.15 5.80313C9.15 5.59688 9.075 5.41875 8.925 5.26875C8.775 5.11875 8.59687 5.04375 8.39062 5.04375C8.18437 5.04375 8.00625 5.11875 7.85625 5.26875L5.2125 7.9125ZM5.75625 14.7938C5.68125 14.7813 5.60625 14.7625 5.53125 14.7375C3.84375 14.175 2.5 13.1344 1.5 11.6156C0.5 10.0969 0 8.4625 0 6.7125V3.16875C0 2.85625 0.090625 2.575 0.271875 2.325C0.453125 2.075 0.6875 1.89375 0.975 1.78125L5.475 0.09375C5.65 0.03125 5.825 0 6 0C6.175 0 6.35 0.03125 6.525 0.09375L11.025 1.78125C11.3125 1.89375 11.5469 2.075 11.7281 2.325C11.9094 2.575 12 2.85625 12 3.16875V6.7125C12 8.4625 11.5 10.0969 10.5 11.6156C9.5 13.1344 8.15625 14.175 6.46875 14.7375C6.39375 14.7625 6.31875 14.7813 6.24375 14.7938C6.16875 14.8063 6.0875 14.8125 6 14.8125C5.9125 14.8125 5.83125 14.8063 5.75625 14.7938Z" fill="#0F7635"/>
</svg>
